<?xml version="1.0" encoding="UTF-8" standalone="no"?>
<svg
   xmlns:dc="http://purl.org/dc/elements/1.1/"
   xmlns:cc="http://creativecommons.org/ns#"
   xmlns:rdf="http://www.w3.org/1999/02/22-rdf-syntax-ns#"
   xmlns:svg="http://www.w3.org/2000/svg"
   xmlns="http://www.w3.org/2000/svg"
   xmlns:sodipodi="http://sodipodi.sourceforge.net/DTD/sodipodi-0.dtd"
   xmlns:inkscape="http://www.inkscape.org/namespaces/inkscape"
   viewBox="0 0 190 50"
   id="svg2"
   version="1.1"
   inkscape:version="0.48.5 r10040"
   width="100%"
   height="100%"
   sodipodi:docname="logo.svg"
   inkscape:export-filename="/home/embs/Code/prouvir/site/assets/img/prouvir.png"
   inkscape:export-xdpi="90"
   inkscape:export-ydpi="90">
  <metadata
     id="metadata10">
    <rdf:RDF>
      <cc:Work
         rdf:about="">
        <dc:format>image/svg+xml</dc:format>
        <dc:type
           rdf:resource="http://purl.org/dc/dcmitype/StillImage" />
        <dc:title></dc:title>
      </cc:Work>
    </rdf:RDF>
  </metadata>
  <defs
     id="defs8" />
  <sodipodi:namedview
     pagecolor="#888888"
     bordercolor="#666666"
     borderopacity="1"
     objecttolerance="10"
     gridtolerance="10"
     guidetolerance="10"
     inkscape:pageopacity="0"
     inkscape:pageshadow="2"
     inkscape:window-width="1920"
     inkscape:window-height="1027"
     id="namedview6"
     showgrid="true"
     inkscape:zoom="3.6875"
     inkscape:cx="95.163959"
     inkscape:cy="16.85097"
     inkscape:window-x="0"
     inkscape:window-y="0"
     inkscape:window-maximized="1"
     inkscape:current-layer="svg2">
    <inkscape:grid
       type="xygrid"
       id="grid2984"
       empspacing="5"
       visible="true"
       enabled="true"
       snapvisiblegridlinesonly="true" />
  </sodipodi:namedview>
  <path
     d="m 23.142076,25.227967 c 0,1.35914 -1.10179,2.46094 -2.46093,2.46094 -1.35914,0 -2.46094,-1.1018 -2.46094,-2.46094 0,-3.87703 3.15422,-7.03125 7.03125,-7.03125 3.87703,0 7.03125,3.15422 7.03125,7.03125 0,1.35914 -1.1018,2.46094 -2.46094,2.46094 -1.35914,0 -2.46093,-1.1018 -2.46093,-2.46094 0,-1.16314 -0.94632,-2.10937 -2.10938,-2.10937 -1.16306,0 -2.10938,0.94623 -2.10938,2.10937 z m 2.10938,-15.4687503 c -8.52952,0 -15.4687505,6.9392303 -15.4687505,15.4687503 0,1.35914 1.1017905,2.46094 2.4609305,2.46094 1.35915,0 2.46094,-1.1018 2.46094,-2.46094 0,-5.81555 4.73133,-10.54687 10.54688,-10.54687 5.81555,0 10.54688,4.73132 10.54688,10.54687 0,6.60622 -6.24103,6.17968 -6.32787,12.62303 l -2.6e-4,0.0332 c 0,2.52008 -2.05022,4.57031 -4.57031,4.57031 -1.35914,0 -2.46094,1.1018 -2.46094,2.46094 0,1.35914 1.1018,2.46094 2.46094,2.46094 5.22729,0 9.48129,-4.24758 9.49219,-9.47233 0.0523,-3.0259 6.32812,-4.23985 6.32812,-12.67612 0,-8.52952 -6.93923,-15.4687503 -15.46875,-15.4687503 z m -7.03125,20.7421903 c -1.55329,0 -2.8125,1.25921 -2.8125,2.8125 0,1.55329 1.25921,2.8125 2.8125,2.8125 1.55329,0 2.8125,-1.25921 2.8125,-2.8125 0,-1.55329 -1.25921,-2.8125 -2.8125,-2.8125 z m -11.2500005,11.25 c -1.5533,0 -2.8125,1.25921 -2.8125,2.8125 0,1.5533 1.2592,2.81251 2.8125,2.81251 1.55329,0 2.8125,-1.25921 2.8125,-2.81251 0,-1.55329 -1.25921,-2.8125 -2.8125,-2.8125 z M 49.157706,25.228587 c 0,-0.13342 -10e-4,-0.26587 -0.004,-0.39823 -0.16515,-10.10312 -6.66194,-19.0728003 -16.16845,-22.3211503 -1.2861,-0.43928 -2.68497,0.24688 -3.12451,1.53299 -0.43946,1.2861 0.24697,2.68497 1.53299,3.12451 7.55033,2.57994 12.70986,9.7130603 12.8388,17.7497803 l 2.6e-4,0.0165 c 0.002,0.0983 0.003,0.19653 0.003,0.29558 0,1.35914 1.1018,2.46094 2.46094,2.46094 1.35914,0 2.46102,-1.1018 2.46102,-2.46094 z m -31.55529,15.73436 -7.03125,-7.03125 -2.9830905,2.98309 7.0312505,7.03125 2.98309,-2.98309 z"
     id="path4"
     style="fill:#ffd000;fill-opacity:1"
     inkscape:connector-curvature="0" />
  <text
     xml:space="preserve"
     style="font-size:40px;font-style:normal;font-weight:normal;line-height:125%;letter-spacing:0px;word-spacing:0px;fill:#ffffff;fill-opacity:1;stroke:none;font-family:Sans"
     x="60"
     y="37"
     id="text2982"
     sodipodi:linespacing="125%"><tspan
       sodipodi:role="line"
       id="tspan2984"
       x="60"
       y="37"
       style="font-size:28px;font-style:normal;font-variant:normal;font-stretch:normal;text-align:start;line-height:125%;writing-mode:lr-tb;text-anchor:start;fill:#ffffff;font-family:URW Gothic L;-inkscape-font-specification:URW Gothic L Book">PROUVIR</tspan></text>
</svg>
