<?xml version="1.0" encoding="UTF-8" standalone="no"?>
<svg
   xmlns:dc="http://purl.org/dc/elements/1.1/"
   xmlns:cc="http://creativecommons.org/ns#"
   xmlns:rdf="http://www.w3.org/1999/02/22-rdf-syntax-ns#"
   xmlns:svg="http://www.w3.org/2000/svg"
   xmlns="http://www.w3.org/2000/svg"
   xmlns:sodipodi="http://sodipodi.sourceforge.net/DTD/sodipodi-0.dtd"
   xmlns:inkscape="http://www.inkscape.org/namespaces/inkscape"
   version="1.1"
   x="0px"
   y="0px"
   viewBox="0 0 92.043486 75.732618"
   enable-background="new 0 0 100 100"
   xml:space="preserve"
   id="svg2"
   inkscape:version="0.48.5 r10040"
   width="100%"
   height="100%"
   sodipodi:docname="noun_30151_cc.svg"><metadata
     id="metadata26"><rdf:RDF><cc:Work
         rdf:about=""><dc:format>image/svg+xml</dc:format><dc:type
           rdf:resource="http://purl.org/dc/dcmitype/StillImage" /></cc:Work></rdf:RDF></metadata><defs
     id="defs24" /><sodipodi:namedview
     pagecolor="#ffffff"
     bordercolor="#666666"
     borderopacity="1"
     objecttolerance="10"
     gridtolerance="10"
     guidetolerance="10"
     inkscape:pageopacity="0"
     inkscape:pageshadow="2"
     inkscape:window-width="1920"
     inkscape:window-height="1027"
     id="namedview22"
     showgrid="false"
     fit-margin-top="0"
     fit-margin-left="0"
     fit-margin-right="0"
     fit-margin-bottom="0"
     inkscape:zoom="1.888"
     inkscape:cx="47.080766"
     inkscape:cy="26.498192"
     inkscape:window-x="0"
     inkscape:window-y="0"
     inkscape:window-maximized="1"
     inkscape:current-layer="svg2" /><path
     d="m 90.636444,37.648426 -9.4,-0.065 0.022,-3.249 -8.113,4.608 8.046,4.722 0.024,-3.247 9.4,0.067 c 0.005,0 0.007,0 0.011,0 0.779,0 1.413,-0.629 1.417,-1.407 0.006,-0.783 -0.623,-1.423 -1.407,-1.429 z"
     id="path4"
     inkscape:connector-curvature="0" /><path
     d="M 15.926444,25.112426"
     id="path6"
     inkscape:connector-curvature="0" /><path
     d="m 9.8754439,27.782426 c -0.568,0 -1.104,-0.343 -1.322,-0.904 -2.784,-7.172 -2.47,-13.819 0.841,-17.7799997 0.502,-0.599 1.3960001,-0.681 1.9970001,-0.179 0.601,0.503 0.681,1.3959997 0.179,1.9969997 -2.6000001,3.109 -2.7420001,8.833 -0.373,14.937 0.283,0.729 -0.079,1.551 -0.809,1.834 -0.169,0.065 -0.343,0.095 -0.5130001,0.095 z"
     id="path8"
     inkscape:connector-curvature="0" /><path
     d="m 15.927444,26.529426 c -0.465,0 -0.92,-0.228 -1.191,-0.648 -2.725,-4.214 -2.885,-9.662 -0.375,-12.674 0.501,-0.603 1.394,-0.683 1.996,-0.182 0.602,0.502 0.683,1.396 0.182,1.997 -1.72,2.063 -1.466,6.157 0.578,9.32 0.425,0.657 0.236,1.535 -0.421,1.96 -0.238,0.155 -0.505,0.227 -0.769,0.227 z"
     id="path10"
     inkscape:connector-curvature="0" /><path
     d="m 3.6204439,29.156426 c -0.554,0 -1.079,-0.326 -1.308,-0.869 -3.715,-8.831 -2.91000003,-17.787 2.099,-23.3719997 0.521,-0.584 1.418,-0.632 2.001,-0.108 0.583,0.522 0.632,1.418 0.109,2.001 -4.205,4.6889997 -4.831,12.6889997 -1.596,20.3819997 0.304,0.721 -0.035,1.553 -0.757,1.855 -0.179,0.076 -0.366,0.111 -0.548,0.111 z"
     id="path12"
     inkscape:connector-curvature="0" /><path
     d="M 8.3144439,8.2164263"
     id="path14"
     inkscape:connector-curvature="0" /><path
     d="m 65.730444,54.444426 c -3.639,0.515 -5.363,1.499 -8.435,-1.065 -2.252,-1.88 -4.655,-3.581 -7.051,-5.266 -7.024,-4.946 -11.225,-10.448 -11.518,-19.34 -0.235,-7.087 1.877,-15.079 10.067,-15.753 3.16,-0.261 6.32,0.745 9.009,2.319 4.161,2.436 3.842,6.773 3.288,10.861 -0.068,0.002 -0.125,-0.019 -0.197,-0.008 -5.283,0.836 -10.813,2.834 -12.885,8.174 -2.406,6.198 4.316,12.575 8.771,15.558 3.24,2.165 10.599,4.657 13.177,0.256 0.982,-1.676 -0.941,-3.495 -1.92,-4.559 -4.052,-4.397 -1.777,-7.315 -0.955,-12.256 0.065,-0.388 -0.013,-0.715 -0.181,-0.973 2.83,-1.717 4.51,-4.757 5.19,-8.12 2.038,-10.086 -10.396,-18.2339997 -18.841,-19.1109997 -1.812,-0.188 -3.638,-0.108 -5.433,0.183 0.16,-0.563 0.214,-1.165 0.119,-1.781 -0.353,-2.293 -2.506,-3.86999995 -4.788,-3.51299995 -12.347,1.89699995 -20.969,13.09599965 -20.969,27.23099965 0,7.111 2.132,13.831 6.001,18.923 0.826,1.088 2.08,1.659 3.347,1.659 0.887,0 1.779,-0.279 2.538,-0.856 0.34,-0.258 0.613,-0.568 0.851,-0.899 1.112,2.627 2.392,5.166 3.979,7.799 2.576,4.264 5.604,8.574 9.12,12.104 3.263,3.273 8.431,5.619 12.51,7.734 3.581,1.856 7.66,2.85 11.355,1.005 3.632,-1.812 4.282,-3.468 5.603,-7.091 0.054,-0.101 0.097,-0.209 0.125,-0.34 0.072,-0.199 0.088,-0.38 0.069,-0.546 0.894,-6.485 -5.488,-13.242 -11.946,-12.329 z m -12.678,-19.616 h 2.844 v -2.844 h 2 v 2.844 h 2.844 v 2 h -2.844 v 2.844 h -2 v -2.844 h -2.844 v -2 z m 10.375,11.344 h -7.688 v -2 h 7.688 v 2 z m 11.808,20.494 c -1.499,4.107 -3.414,7.146 -8.535,6.451 -4.528,-0.616 -8.213,-3.266 -11.997,-5.649 -8.599,-5.414 -15.967,-15.706 -18.897,-25.597 -2.071,-6.991 -5.266,-14.085 -3.417,-21.462 1.936,-7.731 10.772,-12.1049997 18.067,-12.7939997 7.537,-0.713 13.533,3.6259997 17.532,9.6389997 3.041,4.571 1.829,10.327 -2.709,13.292 -3.146,2.054 -1.46,-6.162 -1.571,-5.335 0.228,-1.706 0.32,-3.225 0.183,-4.943 -0.578,-7.323 -10.537,-10.5759997 -16.636,-9.563 -9.376,1.558 -11.216,11.167 -10.947,19.319 0.382,11.585 8.304,16.883 16.72,23.121 3.778,2.799 4.897,5.288 9.547,4.368 3.673,-0.729 6.134,-0.825 9.32,1.325 1.96,1.326 3.828,5.413 3.34,7.828 z"
     id="path16"
     inkscape:connector-curvature="0" /></svg>