<?xml version="1.0" encoding="UTF-8" standalone="no"?>
<svg
   xmlns:dc="http://purl.org/dc/elements/1.1/"
   xmlns:cc="http://creativecommons.org/ns#"
   xmlns:rdf="http://www.w3.org/1999/02/22-rdf-syntax-ns#"
   xmlns:svg="http://www.w3.org/2000/svg"
   xmlns="http://www.w3.org/2000/svg"
   xmlns:sodipodi="http://sodipodi.sourceforge.net/DTD/sodipodi-0.dtd"
   xmlns:inkscape="http://www.inkscape.org/namespaces/inkscape"
   version="1.1"
   x="0px"
   y="0px"
   viewBox="0 0 69.456035 96.982"
   enable-background="new 0 0 100 100"
   xml:space="preserve"
   id="svg2"
   inkscape:version="0.48.5 r10040"
   width="100%"
   height="100%"
   sodipodi:docname="noun_152028_cc.svg"><metadata
     id="metadata112"><rdf:RDF><cc:Work
         rdf:about=""><dc:format>image/svg+xml</dc:format><dc:type
           rdf:resource="http://purl.org/dc/dcmitype/StillImage" /></cc:Work></rdf:RDF></metadata><defs
     id="defs110" /><sodipodi:namedview
     pagecolor="#ffffff"
     bordercolor="#666666"
     borderopacity="1"
     objecttolerance="10"
     gridtolerance="10"
     guidetolerance="10"
     inkscape:pageopacity="0"
     inkscape:pageshadow="2"
     inkscape:window-width="1920"
     inkscape:window-height="1027"
     id="namedview108"
     showgrid="false"
     fit-margin-top="0"
     fit-margin-left="0"
     fit-margin-right="0"
     fit-margin-bottom="0"
     inkscape:zoom="1.888"
     inkscape:cx="27.515322"
     inkscape:cy="35.888"
     inkscape:window-x="0"
     inkscape:window-y="0"
     inkscape:window-maximized="1"
     inkscape:current-layer="svg2" /><g
     display="none"
     id="g4"
     style="display:none"
     transform="translate(-23.544,-1.406)"><path
       display="inline"
       stroke-miterlimit="10"
       d="M 31.424,12.485 C 50.731,-5.657 85.944,8.836 74.284,46.932 67.417,69.368 69.645,79.098 59.917,88.503 48.124,99.905 33.634,89.1 33.634,81.715"
       id="path6"
       inkscape:connector-curvature="0"
       style="fill:none;stroke:#000000;stroke-width:8;stroke-miterlimit:10;display:inline" /><path
       display="inline"
       stroke-miterlimit="10"
       d="M 62.313,36.241 C 65.811,17.591 37.671,10.122 33.634,41.012 54.011,36.708 58.193,65.625 42.953,70.831"
       id="path8"
       inkscape:connector-curvature="0"
       style="fill:none;stroke:#000000;stroke-width:6;stroke-miterlimit:10;display:inline" /></g><g
     display="none"
     id="g10"
     style="display:none"
     transform="translate(-23.544,-1.406)"><path
       display="inline"
       d="m 48.574,97.49 c -2.553,0 -5.141,-0.532 -7.687,-1.612 C 34.366,93.112 29.633,87.156 29.633,81.715 h 8 c 0,1.673 2.271,5.056 6.377,6.798 2.633,1.117 7.838,2.228 13.126,-2.885 5.425,-5.245 6.5,-10.5 8.45,-20.041 1.072,-5.245 2.407,-11.772 4.872,-19.826 C 75.079,30.665 72.023,18.034 62.285,11.973 53.618,6.578 42.054,7.987 34.164,15.4 L 28.685,9.57 C 39.215,-0.324 54.77,-2.127 66.513,5.182 79.522,13.279 83.856,29.324 78.109,48.103 75.755,55.791 74.517,61.847 73.424,67.19 71.38,77.189 69.903,84.413 62.696,91.379 58.526,95.412 53.619,97.49 48.574,97.49 z"
       id="path12"
       inkscape:connector-curvature="0"
       style="display:inline" /><path
       display="inline"
       d="M 43.923,73.67 41.984,67.992 C 48.208,65.866 50.218,58.39 48.567,52.39 47.866,49.848 44.761,41.725 34.254,43.946 l -4.144,0.875 0.549,-4.199 c 2.042,-15.624 9.574,-20.803 13.882,-22.499 5.203,-2.05 11.091,-1.13 15.365,2.4 4.558,3.766 6.561,9.849 5.355,16.27 l -5.896,-1.106 c 0.808,-4.307 -0.389,-8.148 -3.281,-10.538 -2.629,-2.172 -6.122,-2.71 -9.345,-1.443 -4.479,1.764 -7.827,6.733 -9.454,13.876 9.155,-0.129 15.12,6.15 17.065,13.215 2.356,8.557 -0.498,19.481 -10.427,22.873 z"
       id="path14"
       inkscape:connector-curvature="0"
       style="display:inline" /></g><g
     display="none"
     id="g16"
     style="display:none"
     transform="translate(-23.544,-1.406)"><path
       display="inline"
       stroke-miterlimit="10"
       d="M 31.424,12.485 C 50.731,-5.657 85.944,8.836 74.284,46.932 67.417,69.368 69.645,79.098 59.917,88.503 48.124,99.905 33.634,92.391 31.424,83.641"
       id="path18"
       inkscape:connector-curvature="0"
       style="fill:none;stroke:#000000;stroke-width:8;stroke-linecap:round;stroke-miterlimit:10;display:inline" /><path
       display="inline"
       stroke-miterlimit="10"
       d="m 62.313,36.241 c 2.501,-18.1 -26.64,-22.028 -28.679,4.771 20.332,-2.946 24.525,24.555 9.319,29.819"
       id="path20"
       inkscape:connector-curvature="0"
       style="fill:none;stroke:#000000;stroke-width:6;stroke-linecap:round;stroke-miterlimit:10;display:inline" /></g><g
     display="none"
     id="g22"
     style="display:none"
     transform="translate(-23.544,-1.406)"><path
       display="inline"
       d="m 46.703,98.288 c -1.894,0 -3.795,-0.263 -5.675,-0.798 -6.698,-1.908 -11.99,-6.959 -13.481,-12.87 -0.541,-2.142 0.757,-4.316 2.898,-4.857 2.146,-0.541 4.317,0.757 4.857,2.899 0.782,3.095 4.037,6.028 7.917,7.134 2.771,0.788 8.264,1.297 13.917,-4.168 5.425,-5.245 6.5,-10.5 8.45,-20.041 1.072,-5.245 2.407,-11.772 4.872,-19.826 C 75.079,30.665 72.023,18.034 62.285,11.973 53.618,6.578 42.054,7.987 34.164,15.4 32.553,16.913 30.021,16.834 28.51,15.224 26.997,13.614 27.076,11.082 28.686,9.57 39.215,-0.324 54.77,-2.127 66.513,5.182 c 13.009,8.097 17.343,24.142 11.596,42.921 -2.354,7.688 -3.592,13.744 -4.685,19.087 -2.044,9.999 -3.521,17.223 -10.728,24.189 -4.68,4.526 -10.297,6.909 -15.993,6.909 z"
       id="path24"
       inkscape:connector-curvature="0"
       style="display:inline" /><path
       display="inline"
       d="m 42.953,73.832 c -1.243,0 -2.405,-0.779 -2.835,-2.02 -0.542,-1.566 0.288,-3.274 1.854,-3.816 6.205,-2.148 8.069,-8.954 6.704,-14.567 -1.313,-5.401 -5.846,-10.72 -14.611,-9.448 l -3.706,0.537 0.284,-3.733 c 0.748,-9.829 5.162,-17.28 12.112,-20.444 5.614,-2.555 12.043,-1.952 16.779,1.577 4.486,3.344 6.583,8.714 5.751,14.734 -0.227,1.641 -1.75,2.792 -3.382,2.561 -1.642,-0.227 -2.788,-1.741 -2.562,-3.382 0.531,-3.843 -0.674,-7.076 -3.394,-9.102 -2.935,-2.188 -7.138,-2.552 -10.707,-0.927 -4.193,1.909 -7.027,6.11 -8.162,11.996 9.669,0.218 15.658,6.94 17.427,14.214 2.007,8.248 -0.98,18.335 -10.571,21.655 -0.325,0.112 -0.656,0.165 -0.981,0.165 z"
       id="path26"
       inkscape:connector-curvature="0"
       style="display:inline" /></g><g
     display="none"
     id="g28"
     style="display:none"
     transform="translate(-23.544,-1.406)"><path
       display="inline"
       stroke-miterlimit="10"
       d="M 32.174,11.795 C 49.766,-4.736 81.853,8.47 71.228,43.183 64.971,63.627 67.001,72.493 58.137,81.063 47.391,91.452 34.188,84.605 32.174,76.632"
       id="path30"
       inkscape:connector-curvature="0"
       style="fill:none;stroke:#000000;stroke-width:8;stroke-linecap:round;stroke-miterlimit:10;display:inline" /><path
       display="inline"
       stroke-miterlimit="10"
       d="M 60.32,33.442 C 62.599,16.949 36.045,13.37 34.187,37.789 52.714,35.104 56.534,60.164 42.679,64.96"
       id="path32"
       inkscape:connector-curvature="0"
       style="fill:none;stroke:#000000;stroke-width:6;stroke-linecap:round;stroke-miterlimit:10;display:inline" /><path
       display="inline"
       d="m 57.81,87.974 4.026,-0.128 c 0,-7.455 -5.243,-15.039 -14.605,-15.039 l 3.932,4.322 6.647,10.845 z"
       id="path34"
       inkscape:connector-curvature="0"
       style="fill:#000000;display:inline" /><path
       display="inline"
       stroke-miterlimit="10"
       d="m 47.304,77.321 c 5.268,0 9.539,4.271 9.539,9.539 0,5.268 -4.271,9.54 -9.539,9.54 -5.268,0 -9.539,-4.271 -9.539,-9.539"
       id="path36"
       inkscape:connector-curvature="0"
       style="fill:none;stroke:#000000;stroke-width:5;stroke-linecap:round;stroke-miterlimit:10;display:inline" /></g><g
     display="none"
     id="g38"
     style="display:none"
     transform="translate(-23.544,-1.406)"><path
       display="inline"
       d="m 42.679,67.961 c -1.243,0 -2.405,-0.779 -2.835,-2.02 -0.542,-1.566 0.288,-3.274 1.854,-3.816 5.504,-1.905 7.152,-7.961 5.938,-12.959 -1.17,-4.807 -5.203,-9.535 -13.018,-8.409 l -3.706,0.537 0.284,-3.733 c 0.689,-9.056 4.769,-15.927 11.192,-18.851 5.206,-2.368 11.166,-1.807 15.559,1.466 4.168,3.106 6.116,8.091 5.345,13.676 -0.227,1.641 -1.736,2.79 -3.383,2.561 -1.641,-0.227 -2.787,-1.741 -2.561,-3.382 0.47,-3.401 -0.591,-6.258 -2.987,-8.044 -2.598,-1.937 -6.321,-2.257 -9.486,-0.816 -3.667,1.669 -6.17,5.316 -7.226,10.431 8.765,0.336 14.197,6.492 15.816,13.146 1.856,7.633 -0.916,16.97 -9.805,20.047 -0.324,0.113 -0.655,0.166 -0.981,0.166 z"
       id="path40"
       inkscape:connector-curvature="0"
       style="display:inline" /><path
       display="inline"
       d="M 64.336,4.839 C 53.5,-1.905 39.148,-0.245 29.435,8.88 c -1.609,1.513 -1.688,4.044 -0.176,5.654 1.512,1.61 4.044,1.689 5.654,0.176 7.071,-6.645 17.432,-7.911 25.194,-3.08 8.729,5.433 11.455,16.791 7.295,30.382 -2.25,7.354 -3.469,13.31 -4.447,18.096 -1.547,7.567 -2.487,12.152 -5.979,16.339 2.095,1.92 3.542,4.435 4.282,7.143 6.34,-6.317 7.693,-12.87 9.535,-21.879 0.994,-4.86 2.12,-10.369 4.26,-17.357 C 80.34,27.079 76.334,12.307 64.336,4.839 z"
       id="path42"
       inkscape:connector-curvature="0"
       style="display:inline" /><path
       display="inline"
       d="m 47.303,74.821 c -1.381,0 -2.5,1.119 -2.5,2.5 0,1.381 1.119,2.5 2.5,2.5 1.485,0 2.863,0.465 4,1.253 -3.458,1.689 -6.507,1.33 -8.284,0.824 -3.419,-0.974 -6.284,-3.542 -6.967,-6.246 -0.54,-2.142 -2.711,-3.439 -4.857,-2.899 -2.142,0.541 -3.439,2.715 -2.898,4.857 0.94,3.723 3.497,7.075 6.976,9.406 0.085,6.567 5.445,11.884 12.03,11.884 6.639,0 12.04,-5.401 12.04,-12.04 0,-6.638 -5.401,-12.039 -12.04,-12.039 z m 0,19.079 c -2.915,0 -5.421,-1.781 -6.488,-4.311 0.004,0.001 0.009,0.003 0.013,0.004 1.746,0.498 3.513,0.742 5.271,0.742 2.735,0 5.445,-0.61 8.027,-1.767 -0.767,3.057 -3.531,5.332 -6.823,5.332 z"
       id="path44"
       inkscape:connector-curvature="0"
       style="display:inline" /></g><g
     display="none"
     id="g46"
     style="display:none"
     transform="translate(-23.544,-1.406)"><path
       display="inline"
       stroke-miterlimit="10"
       d="M 49.277,12.494 C 68.606,-5.669 103.86,8.841 92.187,46.981 85.312,69.442 87.542,79.184 77.803,88.6 65.996,100.015 51.49,92.492 49.277,83.732"
       id="path48"
       inkscape:connector-curvature="0"
       style="fill:none;stroke:#000000;stroke-width:8;stroke-linecap:round;stroke-miterlimit:10;display:inline" /><path
       display="inline"
       stroke-miterlimit="10"
       d="M 80.202,36.278 C 78.564,15.641 42.064,20.641 55.658,49.553 71.857,49.916 71.891,70.182 58.92,71.161"
       id="path50"
       inkscape:connector-curvature="0"
       style="fill:none;stroke:#000000;stroke-width:6;stroke-linecap:round;stroke-miterlimit:10;display:inline" /><path
       display="inline"
       d="M 68.375,55.31 12.525,77.196 C 9.976,78.195 7.073,76.927 6.074,74.377 L 2.416,65.041 C 1.417,62.492 2.685,59.589 5.235,58.59 L 61.084,36.704 c 2.549,-0.999 5.452,0.269 6.451,2.819 l 3.658,9.336 c 0.999,2.549 -0.269,5.452 -2.818,6.451 z"
       id="path52"
       inkscape:connector-curvature="0"
       style="display:inline" /><path
       display="inline"
       d="m 77.034,44.447 c 0,6.255 -4.274,11.512 -10.061,13.009 -1.079,0.279 -16.246,-17.43 -15.247,-19.309 2.258,-4.246 6.727,-7.137 11.871,-7.137 7.421,10e-4 13.437,6.016 13.437,13.437 z"
       id="path54"
       inkscape:connector-curvature="0"
       style="display:inline" /><path
       display="inline"
       d="m 48.726,41.486 -0.843,-1.663 c 0.573,-0.246 10.978,-4.473 11.797,-4.749 2.677,-0.901 5.477,-0.464 7.583,1.617 0.836,0.826 2.203,3.392 2.391,3.794 -2.539,-3.233 -5.843,-4.868 -9.285,-3.706 -0.723,0.242 -10.239,4.188 -11.643,4.707 z"
       id="path56"
       inkscape:connector-curvature="0"
       style="fill:#000000;display:inline" /></g><g
     display="none"
     id="g58"
     style="display:none"
     transform="translate(-23.544,-1.406)"><path
       display="inline"
       d="m 64.115,98.392 c -1.882,0 -3.77,-0.261 -5.638,-0.793 -6.655,-1.895 -11.913,-6.914 -13.395,-12.786 -0.537,-2.126 0.751,-4.285 2.877,-4.822 2.132,-0.536 4.285,0.752 4.822,2.878 0.777,3.078 4.014,5.994 7.872,7.093 2.757,0.785 8.217,1.288 13.835,-4.143 5.393,-5.214 6.461,-10.438 8.401,-19.922 1.065,-5.212 2.392,-11.698 4.84,-19.7 C 92.322,31.192 89.285,18.637 79.605,12.613 70.988,7.249 59.492,8.65 51.65,16.019 c -1.6,1.502 -4.112,1.423 -5.613,-0.174 -1.502,-1.598 -1.423,-4.111 0.174,-5.613 10.463,-9.832 25.92,-11.626 37.59,-4.362 12.926,8.046 17.233,23.99 11.521,42.651 -2.338,7.639 -3.569,13.657 -4.655,18.966 -2.032,9.937 -3.5,17.117 -10.66,24.04 -4.65,4.496 -10.232,6.864 -15.892,6.865 z"
       id="path60"
       inkscape:connector-curvature="0"
       style="display:inline" /><g
       display="inline"
       id="g62"
       style="display:inline"><path
         d="m 71.733,22.188 c -6.579,-2.21 -13.952,-0.37 -18.358,4.576 -1.988,2.231 -4.442,6.352 -4.055,12.761 3.13,-1.275 9.316,-3.778 9.939,-3.987 2.658,-0.895 5.437,-0.461 7.527,1.605 0.83,0.82 2.186,3.367 2.374,3.767 -2.52,-3.209 -5.8,-4.832 -9.217,-3.679 -0.61,0.205 -7.518,3.062 -10.433,4.23 0.003,0.02 0.004,0.039 0.007,0.059 L 5.211,58.882 c -2.53,0.992 -3.79,3.873 -2.798,6.404 l 3.632,9.267 c 0.992,2.531 3.873,3.79 6.404,2.798 l 51.29,-20.1 c 0.691,1.222 1.024,2.559 1.057,3.819 0.09,3.392 -1.89,6.971 -6.517,7.32 -1.64,0.124 -2.869,1.554 -2.745,3.194 0.117,1.564 1.423,2.755 2.966,2.754 0.075,0 0.151,-0.003 0.227,-0.008 8.11,-0.612 12.187,-7.213 12.023,-13.417 -0.04,-1.517 -0.335,-3.067 -0.888,-4.556 3.958,-2.314 6.622,-6.6 6.622,-11.515 0,-7.366 -5.972,-13.338 -13.338,-13.338 -2.59,0 -5.007,0.741 -7.053,2.019 0.422,-1.031 0.992,-1.971 1.728,-2.797 2.799,-3.14 7.742,-4.329 12.014,-2.892 2.341,0.787 6.34,3.02 6.826,9.135 0.13,1.639 1.546,2.865 3.204,2.733 1.639,-0.13 2.864,-1.565 2.733,-3.204 -0.545,-6.856 -4.607,-12.205 -10.865,-14.31 z"
         id="path64"
         inkscape:connector-curvature="0" /></g></g><g
     id="g66"
     transform="translate(-23.544,-1.406)"><path
       d="m 84.403,14.325 0.595,-0.502 c 0.556,-0.471 0.628,-1.307 0.158,-1.865 L 83.399,9.876 C 83.225,9.67 82.993,9.523 82.73,9.454 82.309,9.343 81.862,9.441 81.535,9.718 l -0.759,0.639 C 80.295,9.909 79.801,9.477 79.295,9.06 79.302,9.051 79.314,9.046 79.32,9.037 L 79.957,8.139 C 80.378,7.544 80.238,6.716 79.643,6.294 L 77.42,4.718 C 77.2,4.563 76.94,4.48 76.668,4.478 76.233,4.476 75.824,4.683 75.577,5.033 L 74.94,5.931 C 74.927,5.95 74.924,5.974 74.912,5.993 69.896,3.048 64.16,1.406 58.355,1.406 c -3.809,0 -7.712,0.671 -11.6,1.995 -3.577,1.218 -5.551,3.674 -6.28,6.195 -12.423,2.737 -16.931,12.842 -16.931,21.738 0,6.355 1.821,21.825 18.005,32.558 -0.061,0.46 -0.098,0.939 -0.098,1.449 0,0.76 0.07,1.47 0.189,2.142 0.704,4.737 4.786,8.386 9.716,8.386 5.423,0 9.837,-4.412 9.837,-9.836 0,-1.384 -0.371,-2.749 -0.809,-3.896 -0.438,-1.147 -1.361,-3.496 -3.807,-6.058 -0.083,-0.087 -0.17,-0.17 -0.255,-0.255 -0.108,-0.108 -0.211,-0.215 -0.323,-0.323 -0.014,-0.013 -0.03,-0.022 -0.044,-0.035 -1.077,-1.038 -2.223,-1.974 -3.358,-2.89 -2.965,-2.395 -5.526,-4.464 -6.574,-8.115 -1.054,-3.672 0.363,-5.927 1.737,-7.172 2.226,-2.017 5.759,-2.643 8.594,-1.517 3.071,1.218 4.952,4.289 5.298,8.647 0.114,1.44 1.359,2.517 2.815,2.402 1.44,-0.115 2.516,-1.375 2.401,-2.816 -0.504,-6.36 -3.634,-11.134 -8.585,-13.098 -4.692,-1.86 -10.333,-0.854 -14.039,2.504 -3.449,3.126 -4.635,7.68 -3.253,12.494 1.47,5.122 4.96,8.029 8.099,10.566 -2.11,0.212 -4.235,1.753 -5.08,2.705 -13.559,-9.325 -15.096,-22.42 -15.096,-27.843 0,-3.25 0.908,-13.485 11.873,-16.414 0.207,0.465 0.48,0.908 0.787,1.334 -2.383,1.211 -4.642,2.756 -6.678,4.669 -1.404,1.319 -1.473,3.528 -0.153,4.932 1.319,1.404 3.527,1.473 4.932,0.153 6.89,-6.476 16.992,-7.706 24.564,-2.993 8.505,5.294 11.174,16.326 7.138,29.511 -2.152,7.031 -3.317,12.731 -4.253,17.31 -1.705,8.333 -2.643,12.924 -7.382,17.505 -4.937,4.773 -9.735,4.331 -12.157,3.641 -3.389,-0.966 -6.234,-3.528 -6.917,-6.233 -0.472,-1.868 -2.364,-2.999 -4.237,-2.529 -1.868,0.472 -3,2.369 -2.528,4.237 1.302,5.159 5.923,9.57 11.771,11.235 1.641,0.468 3.301,0.697 4.954,0.697 4.974,0 9.879,-2.081 13.965,-6.032 6.292,-6.083 7.582,-12.392 9.367,-21.124 0.41,-2.005 0.849,-4.136 1.374,-6.434 0.032,0.006 0.062,0.011 0.094,0.017 0.283,0.051 0.584,0.105 0.903,0.166 0.742,0.142 1.488,0.214 2.217,0.214 7.719,0 12.442,-7.87 13.734,-13.159 0.856,-3.5 2.828,-23.861 -7.879,-37.711 z m 4.966,37.002 c -1.067,4.37 -4.83,10.871 -10.82,10.871 -0.54,0 -1.097,-0.054 -1.653,-0.161 -0.305,-0.059 -0.592,-0.11 -0.867,-0.159 0.559,-2.25 1.213,-4.666 2.022,-7.309 C 83.07,38.171 79.285,24.161 67.927,17.091 60.826,12.671 52.13,12.074 44.399,14.99 43.731,14.303 43.34,13.457 43.202,12.627 42.823,10.342 44.074,7.481 47.722,6.24 51.298,5.023 54.875,4.406 58.355,4.406 c 13.065,0 21.036,8.496 23.169,11.1 10.424,12.732 8.611,32.68 7.845,35.821 z"
       id="path68"
       inkscape:connector-curvature="0" /><path
       d="m 58.355,4.406 c -3.479,0 -7.057,0.617 -10.633,1.834 -3.647,1.242 -4.898,4.103 -4.52,6.387 0.137,0.829 0.529,1.676 1.197,2.363 7.731,-2.916 16.426,-2.319 23.528,2.101 11.358,7.07 15.143,21.08 10.124,37.478 -0.809,2.643 -1.464,5.059 -2.022,7.309 0.275,0.049 0.561,0.1 0.867,0.159 0.557,0.106 1.113,0.161 1.653,0.161 5.99,0 9.753,-6.501 10.82,-10.871 0.767,-3.141 2.579,-23.088 -7.845,-35.82 C 79.391,12.902 71.421,4.406 58.355,4.406 z"
       id="path70"
       inkscape:connector-curvature="0"
       style="fill:none" /><path
       d="m 50.831,71.317 c 2.997,0 5.436,-2.438 5.436,-5.435 0,-2.997 -2.439,-5.435 -5.436,-5.435 -2.997,0 -5.435,2.438 -5.435,5.435 0,2.997 2.438,5.435 5.435,5.435 z"
       id="path72"
       inkscape:connector-curvature="0"
       style="fill:#000000" /></g><g
     display="none"
     id="g74"
     style="display:none"
     transform="translate(-23.544,-1.406)"><path
       display="inline"
       stroke-miterlimit="10"
       d="M 32.174,11.795 C 49.766,-4.736 81.853,8.47 71.228,43.183 64.971,63.627 67.001,72.493 58.137,81.063 47.391,91.452 34.188,84.605 32.174,76.632"
       id="path76"
       inkscape:connector-curvature="0"
       style="fill:none;stroke:#000000;stroke-width:8;stroke-linecap:round;stroke-miterlimit:10;display:inline" /><path
       display="inline"
       stroke-miterlimit="10"
       d="M 60.32,33.442 C 62.599,16.949 36.045,13.37 34.187,37.789 52.714,35.104 56.534,60.164 42.679,64.96"
       id="path78"
       inkscape:connector-curvature="0"
       style="fill:none;stroke:#000000;stroke-width:6;stroke-linecap:round;stroke-miterlimit:10;display:inline" /><circle
       display="inline"
       stroke-miterlimit="10"
       cx="46.366001"
       cy="89.047997"
       r="7.9520001"
       id="circle80"
       sodipodi:cx="46.366001"
       sodipodi:cy="89.047997"
       sodipodi:rx="7.9520001"
       sodipodi:ry="7.9520001"
       style="fill:#000000;stroke:#000000;stroke-width:5;stroke-miterlimit:10;display:inline"
       d="m 54.318001,89.047997 c 0,4.391768 -3.560231,7.952 -7.952,7.952 -4.391768,0 -7.952,-3.560232 -7.952,-7.952 0,-4.391769 3.560232,-7.952001 7.952,-7.952001 4.391769,0 7.952,3.560232 7.952,7.952001 z" /></g><g
     display="none"
     id="g82"
     style="display:none"
     transform="translate(-23.544,-1.406)"><path
       display="inline"
       d="m 42.942,67.497 c -1.211,0 -2.343,-0.759 -2.761,-1.967 -0.528,-1.525 0.281,-3.189 1.805,-3.717 5.361,-1.856 6.966,-7.754 5.783,-12.622 -1.139,-4.682 -5.068,-9.287 -12.679,-8.19 l -3.61,0.523 0.277,-3.636 c 0.672,-8.82 4.644,-15.512 10.901,-18.361 5.071,-2.306 10.876,-1.76 15.154,1.428 4.06,3.026 5.957,7.881 5.206,13.32 -0.221,1.598 -1.691,2.717 -3.295,2.494 -1.598,-0.221 -2.715,-1.696 -2.494,-3.294 0.458,-3.313 -0.575,-6.095 -2.91,-7.835 -2.53,-1.886 -6.157,-2.198 -9.24,-0.795 -3.572,1.626 -6.009,5.178 -7.038,10.16 8.537,0.328 13.828,6.323 15.405,12.804 1.808,7.434 -0.892,16.528 -9.55,19.525 -0.315,0.111 -0.638,0.163 -0.954,0.163 z"
       id="path84"
       inkscape:connector-curvature="0"
       style="display:inline" /><path
       display="inline"
       d="M 64.034,6.017 C 53.48,-0.552 39.502,1.065 30.042,9.953 c -1.568,1.473 -1.645,3.939 -0.171,5.507 1.472,1.568 3.939,1.645 5.507,0.171 6.887,-6.472 16.978,-7.705 24.539,-3 8.501,5.292 11.157,16.354 7.105,29.592 -2.191,7.162 -3.379,12.963 -4.332,17.625 -1.718,8.401 -2.664,13.028 -7.402,17.609 -0.983,0.95 -1.958,1.684 -2.911,2.257 -1.656,-1.167 -3.67,-1.859 -5.845,-1.859 -2.255,0 -4.333,0.746 -6.022,1.991 -2.022,-1.227 -3.555,-3.004 -4.023,-4.858 -0.526,-2.086 -2.64,-3.349 -4.731,-2.824 -2.086,0.527 -3.35,2.645 -2.823,4.731 0.981,3.888 3.775,7.359 7.544,9.635 -0.073,0.492 -0.124,0.992 -0.124,1.504 0,5.613 4.566,10.18 10.179,10.18 5.614,0 10.18,-4.567 10.18,-10.18 0,-0.603 -0.063,-1.192 -0.164,-1.766 1.449,-0.887 2.847,-1.944 4.156,-3.209 6.473,-6.258 7.793,-12.714 9.62,-21.649 0.968,-4.734 2.065,-10.099 4.149,-16.906 C 79.623,27.678 75.72,13.291 64.034,6.017 z M 46.532,93.345 c -2.739,0 -4.999,-2.085 -5.279,-4.751 -0.019,-0.184 -0.03,-0.37 -0.03,-0.559 0,-2.928 2.382,-5.31 5.309,-5.31 2.928,0 5.31,2.382 5.31,5.31 0,0.135 -0.01,0.268 -0.02,0.401 -0.206,2.741 -2.498,4.909 -5.29,4.909 z"
       id="path86"
       inkscape:connector-curvature="0"
       style="display:inline" /></g><g
     display="none"
     id="g88"
     style="display:none"
     transform="translate(-23.544,-1.406)"><path
       display="inline"
       stroke-miterlimit="10"
       d="M 59.779,33.655 C 62.075,17.039 35.324,13.434 33.452,38.034 52.116,35.329 55.965,60.575 42.007,65.407"
       id="path90"
       inkscape:connector-curvature="0"
       style="fill:none;stroke:#000000;stroke-width:5;stroke-linecap:round;stroke-miterlimit:10;display:inline" /><circle
       display="inline"
       stroke-miterlimit="10"
       cx="47.293999"
       cy="79.237999"
       r="4.9970002"
       id="circle92"
       sodipodi:cx="47.293999"
       sodipodi:cy="79.237999"
       sodipodi:rx="4.9970002"
       sodipodi:ry="4.9970002"
       style="fill:none;stroke:#000000;stroke-width:5;stroke-linecap:round;stroke-miterlimit:10;display:inline"
       d="m 52.290999,79.237999 c 0,2.759767 -2.237233,4.997 -4.997,4.997 -2.759767,0 -4.997,-2.237233 -4.997,-4.997 0,-2.759767 2.237233,-4.997 4.997,-4.997 2.759767,0 4.997,2.237233 4.997,4.997 z" /><path
       display="inline"
       stroke-miterlimit="10"
       d="M 31.424,11.848 C 49.147,-4.806 81.472,8.498 70.768,43.469 68.37,51.303 65.357,59.67 64.346,62.85 c -1.012,3.18 -1.754,7.811 -1.754,16.767 0,8.956 -6.849,15.297 -15.297,15.297 -8.448,0 -15.297,-6.849 -15.297,-15.297"
       id="path94"
       inkscape:connector-curvature="0"
       style="fill:none;stroke:#000000;stroke-width:7;stroke-linecap:round;stroke-miterlimit:10;display:inline" /></g><g
     display="none"
     id="g96"
     style="display:none"
     transform="translate(-23.544,-1.406)"><path
       display="inline"
       d="m 42.007,67.908 c -1.036,0 -2.005,-0.648 -2.362,-1.683 -0.452,-1.305 0.239,-2.729 1.545,-3.18 5.839,-2.021 7.598,-8.408 6.317,-13.672 C 46.275,44.307 42.03,39.32 33.811,40.509 l -3.088,0.448 0.236,-3.111 c 0.68,-8.927 4.678,-15.69 10.971,-18.555 5.069,-2.307 10.872,-1.763 15.146,1.42 4.042,3.013 5.93,7.856 5.18,13.288 -0.189,1.368 -1.457,2.32 -2.818,2.134 C 58.07,35.944 57.115,34.682 57.303,33.314 57.804,29.69 56.662,26.638 54.088,24.72 51.32,22.657 47.36,22.311 44.003,23.842 c -3.998,1.82 -6.674,5.851 -7.692,11.493 8.918,0.067 14.438,6.208 16.056,12.857 1.814,7.46 -0.88,16.581 -9.541,19.579 -0.272,0.093 -0.547,0.137 -0.819,0.137 z"
       id="path98"
       inkscape:connector-curvature="0"
       style="display:inline" /><path
       display="inline"
       d="m 47.295,86.734 c -4.134,0 -7.497,-3.363 -7.497,-7.497 0,-4.134 3.363,-7.497 7.497,-7.497 4.134,0 7.496,3.363 7.496,7.497 0,4.134 -3.363,7.497 -7.496,7.497 z m 0,-9.993 c -1.377,0 -2.497,1.12 -2.497,2.497 0,1.376 1.12,2.497 2.497,2.497 1.376,0 2.496,-1.12 2.496,-2.497 0,-1.377 -1.12,-2.497 -2.496,-2.497 z"
       id="path100"
       inkscape:connector-curvature="0"
       style="display:inline" /><path
       display="inline"
       d="m 47.295,98.414 c -10.365,0 -18.798,-8.433 -18.798,-18.797 0,-1.933 1.567,-3.5 3.5,-3.5 1.933,0 3.5,1.567 3.5,3.5 0,6.505 5.293,11.797 11.798,11.797 6.726,0 11.797,-5.072 11.797,-11.797 0,-8.154 0.592,-13.652 1.918,-17.827 0.353,-1.106 0.941,-2.828 1.663,-4.935 1.346,-3.931 3.189,-9.314 4.749,-14.411 C 71.688,28.507 68.855,16.84 59.846,11.232 51.824,6.239 41.121,7.541 33.822,14.399 32.413,15.722 30.199,15.652 28.875,14.245 27.552,12.836 27.62,10.621 29.029,9.297 38.638,0.269 52.833,-1.379 63.545,5.289 c 11.871,7.389 15.823,22.044 10.571,39.204 -1.594,5.207 -3.458,10.653 -4.82,14.63 -0.7,2.044 -1.272,3.715 -1.614,4.788 C 67,66.057 66.093,70.021 66.093,79.617 66.091,90.333 58.01,98.414 47.295,98.414 z"
       id="path102"
       inkscape:connector-curvature="0"
       style="display:inline" /></g></svg>