<?xml version="1.0" encoding="UTF-8" standalone="no"?>
<svg
   xmlns:dc="http://purl.org/dc/elements/1.1/"
   xmlns:cc="http://creativecommons.org/ns#"
   xmlns:rdf="http://www.w3.org/1999/02/22-rdf-syntax-ns#"
   xmlns:svg="http://www.w3.org/2000/svg"
   xmlns="http://www.w3.org/2000/svg"
   xmlns:sodipodi="http://sodipodi.sourceforge.net/DTD/sodipodi-0.dtd"
   xmlns:inkscape="http://www.inkscape.org/namespaces/inkscape"
   version="1.1"
   x="0px"
   y="0px"
   viewBox="-42 491 71.4 89.4"
   xml:space="preserve"
   id="svg3043"
   inkscape:version="0.48.5 r10040"
   width="100%"
   height="100%"
   sodipodi:docname="noun_466190_cc.svg"><metadata
     id="metadata3061"><rdf:RDF><cc:Work
         rdf:about=""><dc:format>image/svg+xml</dc:format><dc:type
           rdf:resource="http://purl.org/dc/dcmitype/StillImage" /></cc:Work></rdf:RDF></metadata><defs
     id="defs3059" /><sodipodi:namedview
     pagecolor="#ffffff"
     bordercolor="#666666"
     borderopacity="1"
     objecttolerance="10"
     gridtolerance="10"
     guidetolerance="10"
     inkscape:pageopacity="0"
     inkscape:pageshadow="2"
     inkscape:window-width="1920"
     inkscape:window-height="1027"
     id="namedview3057"
     showgrid="false"
     inkscape:zoom="6.610101"
     inkscape:cx="32.802567"
     inkscape:cy="36.776345"
     inkscape:window-x="0"
     inkscape:window-y="0"
     inkscape:window-maximized="1"
     inkscape:current-layer="svg3043"
     fit-margin-top="0"
     fit-margin-left="0"
     fit-margin-right="0"
     fit-margin-bottom="0" /><style
     type="text/css"
     id="style3045">
	.st0{fill:none;}
	.st1{fill:#231F20;}
	.st2{fill:#FFFFFF;}
</style><path
     d="m -31.3,537.7 c -2.5,2.3 -6.2,5.9 -4.6,12.5 l 0.1,0.3 c 1.5,3.9 4.8,6.2 8.7,6.2 1,0 2.1,-0.1 3.1,-0.5 6.4,-1.9 12.1,-9 10.2,-18.6 l -4.9,1 c 1.3,6.7 -2.4,11.6 -6.7,12.8 -1.3,0.4 -4.3,0.8 -5.7,-2.5 -0.8,-3.5 0.7,-5.2 3.2,-7.5 2.2,-2.1 5.6,-5.3 2.9,-10.4 -1.4,-2.7 -2.7,-4.4 -3.6,-5.6 -1.1,-1.5 -1.5,-2.1 -1.7,-3.1 0.1,-6.6 5.5,-11.9 12.1,-11.9 6.7,0 12.1,5.4 12.1,12.1 0,3.6 -1.6,7 -4.3,9.3 l 3.2,3.8 c 3.9,-3.3 6.1,-8 6.1,-13.1 0,-9.4 -7.7,-17.1 -17.1,-17.1 -9.4,0 -17.1,7.7 -17.1,17.1 l 0,0.3 c 0.3,2.4 1.4,3.9 2.7,5.6 0.9,1.2 2,2.7 3.2,5 0.9,1.4 0.7,1.9 -1.9,4.3 z"
     id="path3047"
     inkscape:connector-curvature="0" /><path
     d="m -42,563.4 c 0,9.4 7.6,17 17,17 9.4,0 17,-7.6 17,-17 1.5,-9.6 3.2,-12.9 8.4,-17.5 C 8,540 12.3,531.2 12.3,521.6 12.3,504.7 -1.4,491 -18.3,491 c -9.7,0 -17.5,3.6 -23.1,10.7 l 3.9,3.1 c 4.7,-5.9 11,-8.8 19.2,-8.8 14.1,0 25.6,11.5 25.6,25.6 0,8 -3.7,15.5 -10,20.4 l -0.1,0.1 c -7.3,6.5 -8.9,11.4 -10.7,24.8 -1.5,4.9 -6.1,8.5 -11.5,8.5 -6.6,0 -12,-5.4 -12,-12 h -5 z"
     id="path3049"
     inkscape:connector-curvature="0" /><polygon
     points="15.9,567.5 27.7,567.5 27.7,580.2 32.7,580.2 32.7,567.5 46.4,567.5 46.4,562.5 32.7,562.5 32.7,549.8 27.7,549.8 27.7,562.5 15.9,562.5 "
     id="polygon3051"
     transform="translate(-17,-3.2)" /></svg>