<?xml version="1.0" encoding="UTF-8" standalone="no"?>
<svg
   xmlns:dc="http://purl.org/dc/elements/1.1/"
   xmlns:cc="http://creativecommons.org/ns#"
   xmlns:rdf="http://www.w3.org/1999/02/22-rdf-syntax-ns#"
   xmlns:svg="http://www.w3.org/2000/svg"
   xmlns="http://www.w3.org/2000/svg"
   xmlns:sodipodi="http://sodipodi.sourceforge.net/DTD/sodipodi-0.dtd"
   xmlns:inkscape="http://www.inkscape.org/namespaces/inkscape"
   version="1.1"
   x="0px"
   y="0px"
   viewBox="0 0 50.023111 70.566"
   enable-background="new 0 0 100 100"
   xml:space="preserve"
   id="svg2"
   inkscape:version="0.48.5 r10040"
   width="100%"
   height="100%"
   sodipodi:docname="noun_650572_cc.svg"><metadata
     id="metadata18"><rdf:RDF><cc:Work
         rdf:about=""><dc:format>image/svg+xml</dc:format><dc:type
           rdf:resource="http://purl.org/dc/dcmitype/StillImage" /></cc:Work></rdf:RDF></metadata><defs
     id="defs16" /><sodipodi:namedview
     pagecolor="#ffffff"
     bordercolor="#666666"
     borderopacity="1"
     objecttolerance="10"
     gridtolerance="10"
     guidetolerance="10"
     inkscape:pageopacity="0"
     inkscape:pageshadow="2"
     inkscape:window-width="1920"
     inkscape:window-height="1027"
     id="namedview14"
     showgrid="false"
     fit-margin-top="0"
     fit-margin-left="0"
     fit-margin-right="0"
     fit-margin-bottom="0"
     inkscape:zoom="1.888"
     inkscape:cx="-52.045927"
     inkscape:cy="37.498"
     inkscape:window-x="0"
     inkscape:window-y="0"
     inkscape:window-maximized="1"
     inkscape:current-layer="svg2" /><g
     id="g4"
     transform="matrix(0.70566,0,0,0.70567411,-10.339231,0)"><path
       d="M 85.356,33.582 C 82.564,13.81 67.487,0 48.692,0 46.89,0 45.052,0.131 43.228,0.388 32.618,1.887 24.825,5.893 20.065,12.298 c -4.736,6.373 -6.376,14.998 -4.874,25.635 0.01,0.07 0.023,0.139 0.039,0.208 0.197,0.864 0.46,2.027 0.757,3.354 2.761,-3.29 6.333,-5.873 10.406,-7.447 C 24.31,20.257 33.218,9.425 46.667,8.833 c 15.167,-0.667 30,5 29.667,28.167 -0.242,16.836 -14.167,39 -15.834,38.5 0,0 7.125,-10.208 9.625,-19.375 C 72.511,47.377 73.044,43.177 73,38 72.833,18.333 61.667,13.167 48.75,13 45.945,12.964 36.544,15.164 34,24.25 c -0.767,2.737 -0.239,5.458 0.365,8.114 0.404,-0.019 0.811,-0.031 1.219,-0.031 14.107,0 25.584,11.477 25.584,25.583 0,14.106 -11.477,25.583 -25.584,25.583 -6.305,0 -12.081,-2.297 -16.545,-6.093 -0.229,7.494 2.46,12.406 4.97,15.322 3.917,4.552 9.969,7.27 16.187,7.27 h 0 c 0.924,0 1.84,-0.063 2.72,-0.188 13.287,-1.876 18.383,-11.134 23.78,-20.935 0.839,-1.524 1.698,-3.086 2.611,-4.666 0.692,-1.196 1.398,-2.406 2.109,-3.625 7.588,-12.996 15.433,-26.436 13.94,-37.002 z"
       id="path6"
       inkscape:connector-curvature="0" /><path
       d="M 17,57.917 C 17,68.164 25.337,76.5 35.584,76.5 45.831,76.5 54.168,68.164 54.168,57.917 54.168,47.67 45.831,39.334 35.584,39.334 25.337,39.334 17,47.67 17,57.917 z"
       id="path8"
       inkscape:connector-curvature="0" /></g></svg>